<?xml version="1.0" encoding="UTF-8" standalone="no"?> <!-- Created with Vectornator for iOS (http://vectornator.io/) --><!DOCTYPE svg PUBLIC "-//W3C//DTD SVG 1.1//EN" "http://www.w3.org/Graphics/SVG/1.1/DTD/svg11.dtd">
<svg height="100%" style="fill-rule:nonzero;clip-rule:evenodd;stroke-linecap:round;stroke-linejoin:round;" xmlns:xlink="http://www.w3.org/1999/xlink" xmlns="http://www.w3.org/2000/svg" xml:space="preserve" width="100%" xmlns:vectornator="http://vectornator.io" version="1.1" viewBox="0 0 400 433.35">
<metadata>
<vectornator:setting key="DimensionsVisible" value="1"/>
<vectornator:setting key="PencilOnly" value="0"/>
<vectornator:setting key="SnapToPoints" value="0"/>
<vectornator:setting key="OutlineMode" value="0"/>
<vectornator:setting key="CMYKEnabledKey" value="0"/>
<vectornator:setting key="RulersVisible" value="1"/>
<vectornator:setting key="SnapToEdges" value="0"/>
<vectornator:setting key="GuidesVisible" value="1"/>
<vectornator:setting key="DisplayWhiteBackground" value="0"/>
<vectornator:setting key="doHistoryDisabled" value="0"/>
<vectornator:setting key="SnapToGuides" value="1"/>
<vectornator:setting key="TimeLapseWatermarkDisabled" value="0"/>
<vectornator:setting key="Units" value="Pixels"/>
<vectornator:setting key="DynamicGuides" value="0"/>
<vectornator:setting key="IsolateActiveLayer" value="0"/>
<vectornator:setting key="SnapToGrid" value="0"/>
</metadata>
<defs/>
<g id="Untitled" vectornator:layerName="Untitled">
<g opacity="1">
<path d="M15.5575+242.634C15.5575+137.302+101.618+51.9132+207.779+51.9132C313.94+51.9132+400+137.302+400+242.634C400+347.965+313.94+433.354+207.779+433.354C101.618+433.354+15.5575+347.965+15.5575+242.634Z" opacity="0.3" fill="#ffbd06"/>
<path d="M128.839+0L0.853079+154.076L190.272+375.879L316.551+228.576L128.839+0Z" opacity="1" fill="#ffbd06"/>
<path d="M128.839+0L0.853079+154.076L190.272+375.879L316.551+228.576L128.839+0Z" opacity="0.1" fill="#000000"/>
<path d="M5.97266+155.77L5.97266+155.77C8.80365+150.714+12.3142+146.063+16.4078+141.945L133.958+23.7038C133.958+23.7038+174.914+16.9312+183.446+37.249L33.2763+159.156L5.97266+155.77Z" opacity="1" fill="#f2f2f2"/>
<path d="M0+153.23L174.061+417.362C174.061+417.362+191.125+429.214+208.19+422.441L386.517+303.074L197.098+18.6243L26.4504+150.69L0+153.23Z" opacity="1" fill="#ffbd06"/>
<path d="M66.5944+137.718L175.818+59.8447L175.818+59.8447L177.432+62.073L177.432+62.073L68.2083+139.946L68.2083+139.946L66.5944+137.718L66.5944+137.718Z" opacity="1" fill="#3f3d56"/>
<path d="M62.8396+168.378L65.1464+166.865L65.1464+166.865L208.491+381.895L208.491+381.895L206.184+383.409L206.184+383.409L62.8396+168.378L62.8396+168.378Z" opacity="1" fill="#3f3d56"/>
<path d="M223.595+388.336L339.609+303.645L339.609+303.645L341.248+305.855L341.248+305.855L225.234+390.547L225.234+390.547L223.595+388.336L223.595+388.336Z" opacity="1" fill="#3f3d56"/>
<path d="M194.258+65.1232L196.527+63.5562L196.527+63.5562L344.99+275.2L344.99+275.2L342.721+276.767L342.721+276.767L194.258+65.1232L194.258+65.1232Z" opacity="1" fill="#3f3d56"/>
<path d="M15.635+144.987L150.668+22.0254L150.668+22.0254L151.821+23.2721L151.821+23.2721L16.7882+146.234L16.7882+146.234L15.635+144.987L15.635+144.987Z" opacity="1" fill="#3f3d56"/>
<path d="M20.7896+146.695L161.917+23.0795L161.917+23.0795L163.047+24.3493L163.047+24.3493L21.9195+147.965L21.9195+147.965L20.7896+146.695L20.7896+146.695Z" opacity="1" fill="#3f3d56"/>
<path d="M24.2419+146.706L170.745+25.5431L170.745+25.5431L171.838+26.8444L171.838+26.8444L25.3351+148.008L25.3351+148.008L24.2419+146.706L24.2419+146.706Z" opacity="1" fill="#3f3d56"/>
</g>
</g>
</svg>
